<svg width="24" height="24" viewBox="0 0 24 24" fill="none" xmlns="http://www.w3.org/2000/svg">
<path d="M8 15.0009V17.0009M12 11.0009V17.0009M16 7.00087V17.0009M7.8 21.0009H16.2C17.8802 21.0009 18.7202 21.0009 19.362 20.6739C19.9265 20.3863 20.3854 19.9273 20.673 19.3628C21 18.7211 21 17.881 21 16.2009V7.80087C21 6.12071 21 5.28063 20.673 4.6389C20.3854 4.07441 19.9265 3.61547 19.362 3.32785C18.7202 3.00087 17.8802 3.00087 16.2 3.00087H7.8C6.11984 3.00087 5.27976 3.00087 4.63803 3.32785C4.07354 3.61547 3.6146 4.07441 3.32698 4.6389C3 5.28063 3 6.12071 3 7.80087V16.2009C3 17.881 3 18.7211 3.32698 19.3628C3.6146 19.9273 4.07354 20.3863 4.63803 20.6739C5.27976 21.0009 6.11984 21.0009 7.8 21.0009Z" stroke="#98A2B3" stroke-width="2" stroke-linecap="round" stroke-linejoin="round"/>
</svg>
