<svg width="24" height="24" viewBox="0 0 24 24" fill="none" xmlns="http://www.w3.org/2000/svg">
<path d="M22 10.0009H2M2 8.20087L2 15.8009C2 16.921 2 17.481 2.21799 17.9088C2.40973 18.2852 2.71569 18.5911 3.09202 18.7829C3.51984 19.0009 4.07989 19.0009 5.2 19.0009L18.8 19.0009C19.9201 19.0009 20.4802 19.0009 20.908 18.7829C21.2843 18.5911 21.5903 18.2852 21.782 17.9089C22 17.481 22 16.921 22 15.8009V8.20087C22 7.08077 22 6.52071 21.782 6.09289C21.5903 5.71657 21.2843 5.4106 20.908 5.21886C20.4802 5.00087 19.9201 5.00087 18.8 5.00087L5.2 5.00087C4.0799 5.00087 3.51984 5.00087 3.09202 5.21886C2.7157 5.4106 2.40973 5.71656 2.21799 6.09289C2 6.52071 2 7.08076 2 8.20087Z" stroke="#98A2B3" stroke-width="2" stroke-linecap="round" stroke-linejoin="round"/>
</svg>
