<svg width="24" height="24" viewBox="0 0 24 24" fill="none" xmlns="http://www.w3.org/2000/svg">
<path d="M14 2.27039V6.40093C14 6.96098 14 7.241 14.109 7.45492C14.2049 7.64308 14.3578 7.79606 14.546 7.89193C14.7599 8.00093 15.0399 8.00093 15.6 8.00093H19.7305M14 17.0009H8M16 13.0009H8M20 9.98908V17.2009C20 18.881 20 19.7211 19.673 20.3628C19.3854 20.9273 18.9265 21.3863 18.362 21.6739C17.7202 22.0009 16.8802 22.0009 15.2 22.0009H8.8C7.11984 22.0009 6.27976 22.0009 5.63803 21.6739C5.07354 21.3863 4.6146 20.9273 4.32698 20.3628C4 19.7211 4 18.881 4 17.2009V6.80085C4 5.1207 4 4.28062 4.32698 3.63888C4.6146 3.0744 5.07354 2.61546 5.63803 2.32783C6.27976 2.00085 7.11984 2.00085 8.8 2.00085H12.0118C12.7455 2.00085 13.1124 2.00085 13.4577 2.08374C13.7638 2.15723 14.0564 2.27845 14.3249 2.44293C14.6276 2.62846 14.887 2.88789 15.4059 3.40674L18.5941 6.59497C19.113 7.11382 19.3724 7.37325 19.5579 7.676C19.7224 7.94442 19.8436 8.23705 19.9171 8.54316C20 8.88842 20 9.25531 20 9.98908Z" stroke="#98A2B3" stroke-width="2" stroke-linecap="round" stroke-linejoin="round"/>
</svg>
