<svg width="24" height="24" viewBox="0 0 24 24" fill="none" xmlns="http://www.w3.org/2000/svg">
<path d="M8 17.0009H16M11.0177 2.76488L4.23539 8.04001C3.78202 8.39263 3.55534 8.56894 3.39203 8.78974C3.24737 8.98533 3.1396 9.20567 3.07403 9.43994C3 9.7044 3 9.99158 3 10.5659V17.8009C3 18.921 3 19.481 3.21799 19.9088C3.40973 20.2852 3.71569 20.5911 4.09202 20.7829C4.51984 21.0009 5.07989 21.0009 6.2 21.0009H17.8C18.9201 21.0009 19.4802 21.0009 19.908 20.7829C20.2843 20.5911 20.5903 20.2852 20.782 19.9088C21 19.481 21 18.921 21 17.8009V10.5659C21 9.99158 21 9.7044 20.926 9.43994C20.8604 9.20567 20.7526 8.98533 20.608 8.78974C20.4447 8.56894 20.218 8.39263 19.7646 8.04001L12.9823 2.76488C12.631 2.49163 12.4553 2.355 12.2613 2.30249C12.0902 2.25615 11.9098 2.25615 11.7387 2.30249C11.5447 2.355 11.369 2.49163 11.0177 2.76488Z" stroke="white" stroke-width="2" stroke-linecap="round" stroke-linejoin="round"/>
</svg>
