<svg width="24" height="24" viewBox="0 0 24 24" fill="none" xmlns="http://www.w3.org/2000/svg">
<path d="M2 12.0009L11.6422 16.822C11.7734 16.8876 11.839 16.9204 11.9078 16.9333C11.9687 16.9447 12.0313 16.9447 12.0922 16.9333C12.161 16.9204 12.2266 16.8876 12.3578 16.822L22 12.0009M2 17.0009L11.6422 21.822C11.7734 21.8876 11.839 21.9204 11.9078 21.9333C11.9687 21.9447 12.0313 21.9447 12.0922 21.9333C12.161 21.9204 12.2266 21.8876 12.3578 21.822L22 17.0009M2 7.00087L11.6422 2.17975C11.7734 2.11416 11.839 2.08136 11.9078 2.06846C11.9687 2.05703 12.0313 2.05703 12.0922 2.06846C12.161 2.08136 12.2266 2.11416 12.3578 2.17975L22 7.00087L12.3578 11.822C12.2266 11.8876 12.161 11.9204 12.0922 11.9333C12.0313 11.9447 11.9687 11.9447 11.9078 11.9333C11.839 11.9204 11.7734 11.8876 11.6422 11.822L2 7.00087Z" stroke="#98A2B3" stroke-width="2" stroke-linecap="round" stroke-linejoin="round"/>
</svg>
