<svg width="280" height="45" viewBox="0 0 280 45" fill="none" xmlns="http://www.w3.org/2000/svg">
<path d="M173.504 17.0393C174.606 17.0393 175.58 17.2681 176.424 17.7255C177.286 18.1654 177.958 18.8516 178.44 19.7841C178.94 20.699 179.19 21.8778 179.19 23.3206V31.4492H175.158V23.954C175.158 22.8103 174.925 21.9658 174.46 21.4204C173.995 20.8749 173.34 20.6022 172.495 20.6022C171.91 20.6022 171.384 20.743 170.919 21.0245C170.454 21.2884 170.092 21.6931 169.833 22.2385C169.575 22.784 169.446 23.4789 169.446 24.3235V31.4492H165.414V23.954C165.414 22.8103 165.181 21.9658 164.716 21.4204C164.268 20.8749 163.622 20.6022 162.777 20.6022C162.191 20.6022 161.666 20.743 161.201 21.0245C160.735 21.2884 160.374 21.6931 160.115 22.2385C159.857 22.784 159.727 23.4789 159.727 24.3235V31.4492H155.695V17.2505H159.546V21.1301L158.823 19.9952C159.305 19.0275 159.986 18.2974 160.865 17.8047C161.761 17.2945 162.777 17.0393 163.914 17.0393C165.19 17.0393 166.301 17.3736 167.249 18.0422C168.214 18.6932 168.851 19.6961 169.161 21.0509L167.74 20.655C168.205 19.5466 168.946 18.6668 169.963 18.0158C170.996 17.3648 172.177 17.0393 173.504 17.0393Z" fill="white"/>
<path d="M189.521 31.6604C188.04 31.6604 186.721 31.3437 185.567 30.7103C184.43 30.0769 183.525 29.2147 182.853 28.1239C182.198 27.0154 181.871 25.7574 181.871 24.3499C181.871 22.9247 182.198 21.6667 182.853 20.5758C183.525 19.4674 184.43 18.6053 185.567 17.9894C186.721 17.356 188.04 17.0393 189.521 17.0393C190.986 17.0393 192.296 17.356 193.45 17.9894C194.605 18.6053 195.509 19.4586 196.164 20.5494C196.819 21.6403 197.146 22.9071 197.146 24.3499C197.146 25.7574 196.819 27.0154 196.164 28.1239C195.509 29.2147 194.605 30.0769 193.45 30.7103C192.296 31.3437 190.986 31.6604 189.521 31.6604ZM189.521 28.2822C190.193 28.2822 190.797 28.1239 191.331 27.8072C191.865 27.4905 192.287 27.0418 192.597 26.4612C192.907 25.863 193.062 25.1592 193.062 24.3499C193.062 23.5229 192.907 22.8191 192.597 22.2385C192.287 21.6579 191.865 21.2092 191.331 20.8925C190.797 20.5758 190.193 20.4175 189.521 20.4175C188.849 20.4175 188.246 20.5758 187.712 20.8925C187.178 21.2092 186.747 21.6579 186.42 22.2385C186.11 22.8191 185.955 23.5229 185.955 24.3499C185.955 25.1592 186.11 25.863 186.42 26.4612C186.747 27.0418 187.178 27.4905 187.712 27.8072C188.246 28.1239 188.849 28.2822 189.521 28.2822Z" fill="white"/>
<path d="M205.527 31.6604C203.89 31.6604 202.615 31.2381 201.702 30.3936C200.789 29.5314 200.332 28.2558 200.332 26.5668V14.1099H204.364V26.514C204.364 27.1122 204.519 27.5785 204.83 27.9128C205.14 28.2295 205.562 28.3878 206.096 28.3878C206.734 28.3878 207.276 28.2119 207.724 27.86L208.81 30.7631C208.396 31.0622 207.897 31.2909 207.311 31.4492C206.742 31.59 206.148 31.6604 205.527 31.6604ZM198.187 20.7342V17.5672H207.828V20.7342H198.187Z" fill="white"/>
<path d="M211.073 31.4492V17.2505H215.105V31.4492H211.073ZM213.089 15.2711C212.348 15.2711 211.745 15.0512 211.28 14.6113C210.815 14.1714 210.582 13.626 210.582 12.975C210.582 12.324 210.815 11.7786 211.28 11.3387C211.745 10.8989 212.348 10.6789 213.089 10.6789C213.83 10.6789 214.433 10.8901 214.899 11.3123C215.364 11.717 215.596 12.2448 215.596 12.8958C215.596 13.582 215.364 14.1538 214.899 14.6113C214.451 15.0512 213.847 15.2711 213.089 15.2711Z" fill="white"/>
<path d="M225.464 31.6604C223.982 31.6604 222.664 31.3437 221.51 30.7103C220.372 30.0769 219.468 29.2147 218.796 28.1239C218.141 27.0154 217.814 25.7574 217.814 24.3499C217.814 22.9247 218.141 21.6667 218.796 20.5758C219.468 19.4674 220.372 18.6053 221.51 17.9894C222.664 17.356 223.982 17.0393 225.464 17.0393C226.929 17.0393 228.238 17.356 229.393 17.9894C230.547 18.6053 231.452 19.4586 232.107 20.5494C232.761 21.6403 233.089 22.9071 233.089 24.3499C233.089 25.7574 232.761 27.0154 232.107 28.1239C231.452 29.2147 230.547 30.0769 229.393 30.7103C228.238 31.3437 226.929 31.6604 225.464 31.6604ZM225.464 28.2822C226.136 28.2822 226.739 28.1239 227.273 27.8072C227.808 27.4905 228.23 27.0418 228.54 26.4612C228.85 25.863 229.005 25.1592 229.005 24.3499C229.005 23.5229 228.85 22.8191 228.54 22.2385C228.23 21.6579 227.808 21.2092 227.273 20.8925C226.739 20.5758 226.136 20.4175 225.464 20.4175C224.792 20.4175 224.189 20.5758 223.655 20.8925C223.121 21.2092 222.69 21.6579 222.363 22.2385C222.052 22.8191 221.897 23.5229 221.897 24.3499C221.897 25.1592 222.052 25.863 222.363 26.4612C222.69 27.0418 223.121 27.4905 223.655 27.8072C224.189 28.1239 224.792 28.2822 225.464 28.2822Z" fill="white"/>
<path d="M244.236 17.0393C245.338 17.0393 246.321 17.2681 247.182 17.7255C248.061 18.1654 248.75 18.8516 249.25 19.7841C249.75 20.699 249.999 21.8778 249.999 23.3206V31.4492H245.967V23.954C245.967 22.8103 245.718 21.9658 245.218 21.4204C244.735 20.8749 244.046 20.6022 243.15 20.6022C242.513 20.6022 241.935 20.743 241.418 21.0245C240.919 21.2884 240.522 21.7019 240.229 22.2649C239.954 22.8279 239.816 23.5493 239.816 24.429V31.4492H235.784V17.2505H239.635V21.1829L238.911 19.9952C239.411 19.0451 240.126 18.3149 241.057 17.8047C241.987 17.2945 243.047 17.0393 244.236 17.0393Z" fill="white"/>
<path d="M6.95269 31.6603C5.64314 31.6603 4.46282 31.3612 3.41173 30.7629C2.36064 30.1647 1.52494 29.3202 0.904625 28.2293C0.301542 27.1385 0 25.8453 0 24.3497C0 22.8718 0.301542 21.5874 0.904625 20.4966C1.52494 19.4057 2.36064 18.5612 3.41173 17.9629C4.46282 17.3471 5.64314 17.0392 6.95269 17.0392C8.17609 17.0392 9.21856 17.3032 10.0801 17.831C10.9589 18.3588 11.6309 19.1594 12.0961 20.2326C12.5614 21.3059 12.794 22.6783 12.794 24.3497C12.794 26.0036 12.5527 27.376 12.0703 28.4669C11.5878 29.5401 10.9072 30.3407 10.0284 30.8685C9.14963 31.3963 8.12439 31.6603 6.95269 31.6603ZM7.65054 28.2821C8.30532 28.2821 8.89979 28.1238 9.43394 27.8071C9.9681 27.4904 10.3903 27.0417 10.7004 26.4611C11.0278 25.8629 11.1915 25.1591 11.1915 24.3497C11.1915 23.5228 11.0278 22.819 10.7004 22.2384C10.3903 21.6578 9.9681 21.2091 9.43394 20.8924C8.89979 20.5757 8.30532 20.4174 7.65054 20.4174C6.97853 20.4174 6.37545 20.5757 5.84129 20.8924C5.30713 21.2091 4.87636 21.6578 4.54897 22.2384C4.23881 22.819 4.08373 23.5228 4.08373 24.3497C4.08373 25.1591 4.23881 25.8629 4.54897 26.4611C4.87636 27.0417 5.30713 27.4904 5.84129 27.8071C6.37545 28.1238 6.97853 28.2821 7.65054 28.2821ZM11.114 36.5691V28.5724L11.3724 24.3761L11.2949 20.1535V17.2504H15.146V36.5691H11.114Z" fill="white"/>
<path d="M24.7461 31.6603C23.5917 31.6603 22.5578 31.4315 21.6446 30.9741C20.7486 30.5166 20.0507 29.8216 19.551 28.8891C19.0513 27.939 18.8015 26.7338 18.8015 25.2735V17.2504H22.8335V24.6665C22.8335 25.8453 23.0747 26.7162 23.5572 27.2792C24.0569 27.8247 24.7547 28.0974 25.6508 28.0974C26.2711 28.0974 26.8225 27.9654 27.3049 27.7015C27.7874 27.42 28.1665 26.9977 28.4422 26.4347C28.7179 25.8541 28.8557 25.1327 28.8557 24.2706V17.2504H32.8878V31.4491H29.0625V27.5432L29.7603 28.678C29.2951 29.6633 28.6059 30.4111 27.6926 30.9213C26.7966 31.4139 25.8145 31.6603 24.7461 31.6603Z" fill="white"/>
<path d="M45.1525 31.4491V28.678L44.894 28.071V23.1093C44.894 22.2296 44.6269 21.5434 44.0928 21.0508C43.5759 20.5581 42.7746 20.3118 41.6891 20.3118C40.9481 20.3118 40.2158 20.435 39.4921 20.6813C38.7857 20.91 38.1826 21.2267 37.6829 21.6314L36.2355 18.7547C36.9936 18.2093 37.9069 17.787 38.9752 17.4879C40.0435 17.1888 41.1291 17.0392 42.2318 17.0392C44.3512 17.0392 45.9968 17.5495 47.1685 18.57C48.3402 19.5904 48.9261 21.1827 48.9261 23.3469V31.4491H45.1525ZM40.9137 31.6603C39.8281 31.6603 38.8977 31.4755 38.1223 31.106C37.3469 30.719 36.7524 30.1999 36.3389 29.5489C35.9253 28.8979 35.7185 28.1678 35.7185 27.3584C35.7185 26.5139 35.9167 25.7749 36.313 25.1415C36.7266 24.5081 37.3727 24.0155 38.2515 23.6636C39.1303 23.2941 40.2761 23.1093 41.6891 23.1093H45.3851V25.511H42.1285C41.1808 25.511 40.526 25.6693 40.1641 25.986C39.8195 26.3027 39.6472 26.6986 39.6472 27.1737C39.6472 27.7015 39.8454 28.1238 40.2417 28.4405C40.6552 28.7396 41.2152 28.8891 41.9217 28.8891C42.5937 28.8891 43.1968 28.7308 43.7309 28.4141C44.2651 28.0798 44.6528 27.5959 44.894 26.9625L45.5143 28.8627C45.2214 29.7777 44.6873 30.4726 43.9119 30.9477C43.1365 31.4227 42.1371 31.6603 40.9137 31.6603Z" fill="white"/>
<path d="M61.027 17.0392C62.1298 17.0392 63.112 17.268 63.9735 17.7254C64.8523 18.1653 65.5415 18.8515 66.0412 19.784C66.5409 20.6989 66.7908 21.8777 66.7908 23.3205V31.4491H62.7587V23.9539C62.7587 22.8102 62.5089 21.9657 62.0092 21.4203C61.5267 20.8748 60.8375 20.6021 59.9415 20.6021C59.3039 20.6021 58.7267 20.7429 58.2098 21.0244C57.7101 21.2883 57.3138 21.7018 57.0208 22.2648C56.7451 22.8278 56.6073 23.5492 56.6073 24.4289V31.4491H52.5753V17.2504H56.4264V21.1827L55.7027 19.9951C56.2024 19.045 56.9175 18.3148 57.8479 17.8046C58.7784 17.2944 59.8381 17.0392 61.027 17.0392Z" fill="white"/>
<path d="M76.1319 31.6603C74.4949 31.6603 73.2198 31.238 72.3066 30.3935C71.3933 29.5313 70.9367 28.2557 70.9367 26.5667V14.1097H74.9688V26.5139C74.9688 27.1121 75.1238 27.5783 75.434 27.9126C75.7441 28.2293 76.1663 28.3877 76.7005 28.3877C77.338 28.3877 77.8808 28.2117 78.3288 27.8599L79.4143 30.7629C79.0008 31.0621 78.5011 31.2908 77.9153 31.4491C77.3466 31.5899 76.7522 31.6603 76.1319 31.6603ZM68.7915 20.7341V17.5671H78.4322V20.7341H68.7915Z" fill="white"/>
<path d="M87.5449 31.6603C86.3904 31.6603 85.3565 31.4315 84.4433 30.9741C83.5473 30.5166 82.8494 29.8216 82.3497 28.8891C81.85 27.939 81.6002 26.7338 81.6002 25.2735V17.2504H85.6322V24.6665C85.6322 25.8453 85.8735 26.7162 86.3559 27.2792C86.8556 27.8247 87.5535 28.0974 88.4495 28.0974C89.0698 28.0974 89.6212 27.9654 90.1037 27.7015C90.5861 27.42 90.9652 26.9977 91.2409 26.4347C91.5166 25.8541 91.6544 25.1327 91.6544 24.2706V17.2504H95.6865V31.4491H91.8612V27.5432L92.5591 28.678C92.0938 29.6633 91.4046 30.4111 90.4913 30.9213C89.5953 31.4139 88.6132 31.6603 87.5449 31.6603Z" fill="white"/>
<path d="M117.23 17.0392C118.333 17.0392 119.306 17.268 120.151 17.7254C121.012 18.1653 121.684 18.8515 122.167 19.784C122.666 20.6989 122.916 21.8777 122.916 23.3205V31.4491H118.884V23.9539C118.884 22.8102 118.652 21.9657 118.186 21.4203C117.721 20.8748 117.066 20.6021 116.222 20.6021C115.636 20.6021 115.111 20.7429 114.645 21.0244C114.18 21.2883 113.818 21.693 113.56 22.2384C113.301 22.7838 113.172 23.4788 113.172 24.3234V31.4491H109.14V23.9539C109.14 22.8102 108.908 21.9657 108.442 21.4203C107.994 20.8748 107.348 20.6021 106.504 20.6021C105.918 20.6021 105.392 20.7429 104.927 21.0244C104.462 21.2883 104.1 21.693 103.842 22.2384C103.583 22.7838 103.454 23.4788 103.454 24.3234V31.4491H99.4219V17.2504H103.273V21.13L102.549 19.9951C103.032 19.0274 103.712 18.2972 104.591 17.8046C105.487 17.2944 106.504 17.0392 107.641 17.0392C108.916 17.0392 110.028 17.3735 110.975 18.0421C111.94 18.6931 112.578 19.696 112.888 21.0508L111.466 20.6549C111.932 19.5464 112.673 18.6667 113.689 18.0157C114.723 17.3647 115.903 17.0392 117.23 17.0392Z" fill="white"/>
<path d="M127.509 8H132.188V39.7018H127.509C126.822 39.7018 126.164 39.4233 125.678 38.9275C125.193 38.4317 124.92 37.7592 124.92 37.058V10.6438C124.92 9.94262 125.193 9.27016 125.678 8.77435C126.164 8.27854 126.822 8 127.509 8Z" fill="#DE5535"/>
<path d="M139.44 8H132.172V39.7018H139.44V8Z" fill="#2D3778"/>
<path d="M146.682 8H139.414V39.7018H146.682V8Z" fill="#3C97D2"/>
<path d="M146.656 8.0249H151.335C151.675 8.0249 152.012 8.09329 152.326 8.22615C152.64 8.35901 152.925 8.55375 153.166 8.79925C153.406 9.04475 153.597 9.3362 153.727 9.65696C153.857 9.97773 153.924 10.3215 153.924 10.6687V37.0829C153.924 37.7841 153.651 38.4566 153.166 38.9524C152.68 39.4482 152.022 39.7267 151.335 39.7267H146.656V8.0249Z" fill="#D53477"/>
<path d="M145.089 14.9031C143.481 14.0438 141.606 13.5812 139.555 13.5812H139.426C137.454 13.5812 135.513 14.0731 133.77 15.0141C130.497 16.8225 128.343 20.2013 128.111 24.3996V25.9092C128.335 30.0217 130.399 33.3634 133.77 35.2088C135.378 36.0892 137.282 36.6259 139.426 36.7462C139.728 36.762 140.029 36.7739 140.34 36.7739C141.954 36.7931 143.558 36.5275 145.083 35.9887C146.766 35.3727 148.19 34.4024 149.267 33.0805L146.485 29.8155C146.062 30.26 145.592 30.655 145.083 30.9933C143.789 31.8499 142.265 32.2742 140.464 32.2742C140.118 32.2729 139.773 32.2526 139.429 32.2134C136.736 31.9292 134.729 30.5346 133.773 28.4023C133.548 27.906 133.383 27.3835 133.282 26.8465H150.684C150.704 26.5728 150.726 26.2622 150.742 25.9687V24.4869C150.515 20.0387 148.364 16.6506 145.089 14.9031ZM133.244 23.3315C133.338 22.6929 133.517 22.0703 133.775 21.4809C134.75 19.2627 136.802 17.8641 139.431 17.8192C139.474 17.8192 139.513 17.8192 139.561 17.8192C142.064 17.8192 144.05 19.034 145.094 20.9772C145.481 21.7077 145.732 22.5057 145.832 23.3302L133.244 23.3315Z" fill="white"/>
<path d="M149.552 11.1562H143.18C143.117 11.1562 143.066 11.2083 143.066 11.2725V13.5409C143.066 13.6052 143.117 13.6572 143.18 13.6572H149.552C149.615 13.6572 149.666 13.6052 149.666 13.5409V11.2725C149.666 11.2083 149.615 11.1562 149.552 11.1562Z" fill="white"/>
</svg>
