<svg width="24" height="24" viewBox="0 0 24 24" fill="none" xmlns="http://www.w3.org/2000/svg">
<path d="M12 2.00085C13.3132 2.00085 14.6136 2.25951 15.8268 2.76206C17.0401 3.26461 18.1425 4.0012 19.0711 4.92979C19.9997 5.85838 20.7363 6.96077 21.2388 8.17402C21.7413 9.38728 22 10.6876 22 12.0009M12 2.00085V12.0009M12 2.00085C6.47715 2.00085 2 6.47801 2 12.0009C2 17.5237 6.47715 22.0009 12 22.0009C17.5228 22.0009 22 17.5237 22 12.0009M12 2.00085C17.5228 2.00085 22 6.47801 22 12.0009M22 12.0009L12 12.0009M22 12.0009C22 13.579 21.6265 15.1347 20.9101 16.5408C20.1936 17.9469 19.1546 19.1634 17.8779 20.091L12 12.0009" stroke="#98A2B3" stroke-width="2" stroke-linecap="round" stroke-linejoin="round"/>
</svg>
