<svg width="24" height="24" viewBox="0 0 24 24" fill="none" xmlns="http://www.w3.org/2000/svg">
<path d="M9.5 8.96619C9.5 8.4889 9.5 8.25026 9.59974 8.11703C9.68666 8.00093 9.81971 7.92829 9.96438 7.91796C10.1304 7.9061 10.3311 8.03515 10.7326 8.29324L15.4532 11.3279C15.8016 11.5519 15.9758 11.6639 16.0359 11.8062C16.0885 11.9307 16.0885 12.071 16.0359 12.1955C15.9758 12.3379 15.8016 12.4498 15.4532 12.6738L10.7326 15.7085C10.3311 15.9666 10.1304 16.0956 9.96438 16.0838C9.81971 16.0734 9.68666 16.0008 9.59974 15.8847C9.5 15.7514 9.5 15.5128 9.5 15.0355V8.96619Z" stroke="#98A2B3" stroke-width="2" stroke-linecap="round" stroke-linejoin="round"/>
<path d="M3 7.80085C3 6.1207 3 5.28062 3.32698 4.63888C3.6146 4.0744 4.07354 3.61546 4.63803 3.32783C5.27976 3.00085 6.11984 3.00085 7.8 3.00085H16.2C17.8802 3.00085 18.7202 3.00085 19.362 3.32783C19.9265 3.61546 20.3854 4.0744 20.673 4.63888C21 5.28062 21 6.1207 21 7.80085V16.2009C21 17.881 21 18.7211 20.673 19.3628C20.3854 19.9273 19.9265 20.3863 19.362 20.6739C18.7202 21.0009 17.8802 21.0009 16.2 21.0009H7.8C6.11984 21.0009 5.27976 21.0009 4.63803 20.6739C4.07354 20.3863 3.6146 19.9273 3.32698 19.3628C3 18.7211 3 17.881 3 16.2009V7.80085Z" stroke="#98A2B3" stroke-width="2" stroke-linecap="round" stroke-linejoin="round"/>
</svg>
