<svg width="24" height="24" viewBox="0 0 24 24" fill="none" xmlns="http://www.w3.org/2000/svg">
<path d="M22 21.0009V19.0009C22 17.137 20.7252 15.5709 19 15.1269M15.5 3.29163C16.9659 3.88502 18 5.32218 18 7.00087C18 8.67956 16.9659 10.1167 15.5 10.7101M17 21.0009C17 19.1371 17 18.2052 16.6955 17.4701C16.2895 16.49 15.5108 15.7113 14.5307 15.3054C13.7956 15.0009 12.8638 15.0009 11 15.0009H8C6.13623 15.0009 5.20435 15.0009 4.46927 15.3054C3.48915 15.7113 2.71046 16.49 2.30448 17.4701C2 18.2052 2 19.1371 2 21.0009M13.5 7.00087C13.5 9.21001 11.7091 11.0009 9.5 11.0009C7.29086 11.0009 5.5 9.21001 5.5 7.00087C5.5 4.79173 7.29086 3.00087 9.5 3.00087C11.7091 3.00087 13.5 4.79173 13.5 7.00087Z" stroke="#98A2B3" stroke-width="2" stroke-linecap="round" stroke-linejoin="round"/>
</svg>
